<?xml version="1.0" encoding="utf-8"?><svg version="1.1" id="Layer_1" xmlns="http://www.w3.org/2000/svg" xmlns:xlink="http://www.w3.org/1999/xlink" x="0px" y="0px" viewBox="0 0 91.31 122.88" style="enable-background:new 0 0 91.31 122.88" xml:space="preserve"><style type="text/css">.st0{fill-rule:evenodd;clip-rule:evenodd;}</style><g><path class="st0" d="M8.99,0h73.34c4.94,0,8.98,4.05,8.98,8.99V113.9c0,4.94-4.04,8.98-8.98,8.98l-73.34,0 c-4.94,0-8.99-4.04-8.99-8.98V8.99C0,4.04,4.04,0,8.99,0L8.99,0L8.99,0z M46.23,101.28c4.05,0,7.32,3.28,7.32,7.33 c0,4.05-3.28,7.33-7.32,7.33c-4.05,0-7.33-3.28-7.33-7.33C38.91,104.56,42.19,101.28,46.23,101.28L46.23,101.28z M12.53,10.34 h66.25c0.74,0,1.34,0.6,1.34,1.34v84.41c0,0.73-0.6,1.34-1.34,1.34H12.53c-0.73,0-1.34-0.6-1.34-1.34V11.68 C11.2,10.94,11.8,10.34,12.53,10.34L12.53,10.34z"/></g></svg>